<svg width="21" height="20" viewBox="0 0 21 20" fill="none" xmlns="http://www.w3.org/2000/svg">
<path id="Path" fill-rule="evenodd" clip-rule="evenodd" d="M6.25022 18.8345C5.74315 19.0992 5.1297 19.0526 4.66844 18.7143C4.20717 18.3761 3.97831 17.805 4.07832 17.2418L4.88765 12.6029L1.48023 9.33755C1.06374 8.94036 0.911096 8.33995 1.08733 7.79207C1.26356 7.24419 1.73762 6.84536 2.30758 6.76548L7.03855 6.0892L9.17444 1.82842C9.42768 1.31743 9.9487 0.994156 10.519 0.994156C11.0893 0.994156 11.6103 1.31743 11.8636 1.82842L13.9994 6.0892L18.7304 6.76548C19.3004 6.84536 19.7744 7.24419 19.9507 7.79207C20.1269 8.33995 19.9743 8.94036 19.5578 9.33755L16.1503 12.6029L16.9597 17.2428C17.0597 17.806 16.8308 18.3771 16.3696 18.7153C15.9083 19.0536 15.2948 19.1002 14.7878 18.8355L10.519 16.6296L6.25022 18.8345Z" fill="#FEC84B" stroke="#FEC84B" stroke-width="1.5" stroke-linecap="round" stroke-linejoin="round"/>
</svg>
